<svg width="32" height="32" viewBox="0 0 32 32" fill="none" xmlns="http://www.w3.org/2000/svg">
<path fill-rule="evenodd" clip-rule="evenodd" d="M15.71 4.03009C9.76 4.44009 5.01 9.38009 4.82 15.3401C4.74 17.7501 5.39 20.0801 6.69 22.0801L3.75 28.0001C3.84 28.0001 11.02 26.0601 11.02 26.0601C12.71 26.9701 14.61 27.4401 16.54 27.4401C23 27.4401 28.26 22.1801 28.26 15.7201C28.26 9.26009 22.55 3.56009 15.71 4.03009ZM16.53 25.4001C14.82 25.4001 13.13 24.9401 11.66 24.0801C11.5 23.9901 11.29 23.8401 11.29 23.8401C11.29 23.8401 10.96 23.9501 10.87 23.9701L7.66 24.8501L9.03 21.8301C7.48 19.9201 6.72 17.5601 6.87 15.1001C7.16 10.3001 11.04 6.39009 15.84 6.06009C21.48 5.67009 26.2 10.1501 26.2 15.7101C26.2 21.2701 21.86 25.3901 16.52 25.3901L16.53 25.4001Z" fill="#212529"/>
<path fill-rule="evenodd" clip-rule="evenodd" d="M21.04 17.4804C20.55 17.1904 19.91 16.8604 19.33 17.1004C18.89 17.2804 18.6 17.9804 18.32 18.3304C18.17 18.5104 18 18.5404 17.77 18.4504C16.1 17.7904 14.83 16.6704 13.91 15.1404C13.75 14.9004 13.78 14.7104 13.97 14.4904C14.25 14.1604 14.6 13.7904 14.67 13.3504C14.75 12.9104 14.54 12.3904 14.36 12.0004C14.13 11.5004 13.87 10.7804 13.37 10.5004C12.91 10.2404 12.3 10.3904 11.89 10.7204C11.18 11.3004 10.84 12.2004 10.85 13.1004C10.85 13.3604 10.88 13.6104 10.94 13.8604C11.44 15.9104 12.85 17.6404 14.5 18.8904C15.92 19.9704 18.27 21.4304 20.14 21.0804C21.05 20.9104 21.94 20.3504 22.3 19.4704C22.41 19.2104 22.46 18.9204 22.4 18.6504C22.28 18.0904 21.51 17.7504 21.05 17.4804H21.04Z" fill="#212529"/>
</svg>
